<svg width="759" height="199" viewBox="0 0 759 199" fill="none" xmlns="http://www.w3.org/2000/svg">
<path d="M166.821 2.832C174.843 2.832 181.179 3.81333 185.829 5.776C190.48 7.696 193.723 10.384 195.557 13.84C197.435 17.2533 198.373 21.456 198.373 26.448C198.373 31.184 197.307 35.3227 195.173 38.864C193.04 42.4053 189.84 45.1573 185.573 47.12C181.307 49.04 176.059 50 169.829 50C166.032 50 162.171 50 158.245 50C154.32 50 150.352 49.9787 146.341 49.936C146.683 41.5307 146.853 33.7013 146.853 26.448C146.853 19.1093 146.683 11.4507 146.341 3.472C151.419 3.04533 158.245 2.832 166.821 2.832ZM171.621 37.264C175.589 37.264 178.235 36.304 179.557 34.384C180.88 32.464 181.541 29.8187 181.541 26.448C181.541 23.2053 180.837 20.5813 179.429 18.576C178.064 16.5707 175.461 15.568 171.621 15.568C167.483 15.568 164.389 15.696 162.341 15.952V37.264H171.621ZM231.946 50.64C222.176 50.64 214.986 48.528 210.378 44.304C205.77 40.0373 203.466 34.064 203.466 26.384C203.466 18.7893 205.749 12.8587 210.314 8.592C214.922 4.32533 222.133 2.192 231.946 2.192C241.802 2.192 249.013 4.32533 253.578 8.592C258.186 12.8587 260.49 18.7893 260.49 26.384C260.49 34.1067 258.208 40.08 253.642 44.304C249.077 48.528 241.845 50.64 231.946 50.64ZM231.946 37.584C236.682 37.584 240.096 36.688 242.186 34.896C244.277 33.0613 245.322 30.224 245.322 26.384C245.322 22.6293 244.277 19.8347 242.186 18C240.096 16.1653 236.682 15.248 231.946 15.248C227.253 15.248 223.861 16.1653 221.77 18C219.68 19.8347 218.634 22.6293 218.634 26.384C218.634 30.1813 219.68 32.9973 221.77 34.832C223.861 36.6667 227.253 37.584 231.946 37.584ZM319.287 3.6C318.989 10.8107 318.839 18.5333 318.839 26.768C318.839 35.0453 318.989 42.7893 319.287 50H296.375L280.887 15.056L282.039 50H265.591C265.933 41.7227 266.103 33.9787 266.103 26.768C266.103 19.6 265.933 11.8773 265.591 3.6H289.143L304.695 39.504L303.607 3.6H319.287ZM338.74 22.288H323.764V0.079998H338.74V22.288ZM398.192 16.976C391.494 16.7627 384.987 16.6347 378.672 16.592V50H362.672V16.592C356.315 16.6347 349.83 16.7627 343.216 16.976V3.536H398.192V16.976ZM442.522 23.504H469.85V50H458.586L457.242 38.672C455.962 42.7253 453.679 45.7333 450.394 47.696C447.108 49.6587 443.098 50.64 438.362 50.64C434.052 50.64 430.212 49.68 426.842 47.76C423.514 45.84 420.89 43.088 418.97 39.504C417.092 35.92 416.154 31.7387 416.154 26.96C416.154 19.3227 418.436 13.2853 423.002 8.848C427.567 4.41066 434.671 2.192 444.314 2.192C449.818 2.192 454.66 3.088 458.842 4.88C463.066 6.672 466.65 9.44533 469.594 13.2C467.674 14.1813 463.919 16.144 458.33 19.088L456.73 19.984C455.066 18.32 453.124 17.0827 450.906 16.272C448.687 15.4187 446.34 14.992 443.866 14.992C439.77 14.992 436.719 16.08 434.714 18.256C432.708 20.3893 431.706 23.0347 431.706 26.192C431.706 29.6053 432.772 32.3573 434.906 34.448C437.082 36.5387 440.388 37.584 444.826 37.584C446.746 37.584 448.602 37.3067 450.394 36.752C452.228 36.1973 453.764 35.2373 455.002 33.872H442.522V23.504ZM512.15 16.272C507.073 16.016 503.318 15.8667 500.886 15.824V37.712C503.361 37.6693 507.116 37.52 512.15 37.264V50H474.966V37.264C479.873 37.52 483.606 37.6693 486.166 37.712V15.824C483.606 15.8667 479.873 16.016 474.966 16.272V3.536H512.15V16.272ZM571.679 3.536L567.455 13.328C563.743 21.9893 560.82 28.9227 558.687 34.128C556.553 39.3333 554.591 44.624 552.799 50H533.663C531.913 44.7093 529.972 39.4827 527.839 34.32C525.748 29.1147 522.932 22.4587 519.391 14.352C518.793 12.9867 517.236 9.38133 514.719 3.536H532.511C533.791 7.67467 535.689 12.9867 538.207 19.472C540.425 25.1893 542.217 30.1387 543.583 34.32C544.479 31.376 545.545 28.24 546.783 24.912C548.063 21.5413 548.831 19.4933 549.087 18.768C551.561 12.24 553.375 7.16267 554.527 3.536H571.679ZM590.195 38.288C606.409 38.2027 618.163 37.968 625.459 37.584C625.161 39.3333 624.969 41.1467 624.883 43.024C624.841 44.8587 624.819 47.184 624.819 50H575.091C575.433 41.7227 575.603 33.9787 575.603 26.768C575.603 19.5573 575.433 11.8133 575.091 3.536H624.819V15.12H590.195V21.264C592.243 21.3067 595.273 21.328 599.283 21.328C606.067 21.328 613.086 21.2 620.339 20.944V31.952C613.086 31.696 606.067 31.568 599.283 31.568C595.273 31.568 592.243 31.5893 590.195 31.632V38.288ZM51.8018 107.808C51.8018 112.843 50.3298 116.683 47.3858 119.328C44.4418 121.973 39.9831 123.616 34.0098 124.256V128.352H18.8418V124.128C11.7164 123.232 5.48708 121.355 0.15375 118.496C1.56175 116.32 2.71375 114.293 3.60975 112.416C4.54842 110.539 5.44442 108.363 6.29775 105.888C9.15642 107.637 12.5058 109.003 16.3458 109.984C20.1858 110.965 23.7698 111.456 27.0978 111.456C30.4684 111.456 32.8364 111.157 34.2018 110.56C35.6098 109.92 36.3138 109.237 36.3138 108.512C36.3138 105.909 32.5164 104.608 24.9218 104.608C16.6018 104.608 10.5644 103.712 6.80975 101.92C3.05508 100.085 1.17775 97.1413 1.17775 93.088C1.17775 88.352 2.75642 84.64 5.91375 81.952C9.11375 79.2213 13.4231 77.472 18.8418 76.704V73.312H34.0098V76.96C40.2818 77.9413 45.9564 79.8187 51.0338 82.592C50.3084 84.2987 49.6471 86.0053 49.0498 87.712C48.4524 89.4187 47.8978 91.0827 47.3858 92.704L46.6818 94.816C44.5911 93.0667 41.4338 91.616 37.2098 90.464C33.0284 89.2693 29.3378 88.672 26.1378 88.672C22.2551 88.672 19.6311 88.9493 18.2658 89.504C16.9431 90.016 16.2818 90.784 16.2818 91.808C16.2818 92.832 17.1991 93.664 19.0338 94.304C20.9111 94.9013 23.5991 95.2 27.0978 95.2C35.7164 95.2 41.9884 96.2453 45.9138 98.336C49.8391 100.384 51.8018 103.541 51.8018 107.808ZM94.4078 100.896C104.136 100.896 109 103.989 109 110.176C109 113.077 108.338 115.552 107.016 117.6C105.693 119.605 103.325 121.184 99.9118 122.336C96.4984 123.445 91.7624 124 85.7038 124H56.9038C57.2451 115.723 57.4158 107.979 57.4158 100.768C57.4158 93.5573 57.2451 85.8133 56.9038 77.536H71.9438V77.6H85.5758C90.8664 77.6 95.0264 78.048 98.0558 78.944C101.128 79.7973 103.282 81.056 104.52 82.72C105.8 84.384 106.44 86.496 106.44 89.056C106.44 91.6587 105.522 93.984 103.688 96.032C101.896 98.0373 98.8024 99.6587 94.4078 100.896ZM71.9438 89.248V95.2H84.2318C86.8771 95.2 88.7118 94.9653 89.7358 94.496C90.8024 94.0267 91.3358 93.1733 91.3358 91.936C91.3358 90.9547 90.7811 90.272 89.6718 89.888C88.6051 89.4613 86.7918 89.248 84.2318 89.248H71.9438ZM84.2318 112.288C86.4504 112.288 88.1358 112.203 89.2878 112.032C90.4824 111.819 91.3358 111.477 91.8478 111.008C92.3598 110.496 92.6158 109.813 92.6158 108.96C92.6158 107.851 91.9971 107.061 90.7598 106.592C89.5651 106.08 87.3891 105.824 84.2318 105.824H71.9438V112.288H84.2318ZM150.663 124C149.852 121.568 148.764 118.517 147.399 114.848H126.983L123.783 124H107.719L125.639 77.536H149.191L167.239 124H150.663ZM143.751 104.864C142.129 100.384 140.465 95.904 138.759 91.424L137.223 87.264C135.729 91.1467 133.532 97.0133 130.631 104.864H143.751ZM168.091 118.496C169.542 116.32 170.737 114.293 171.675 112.416C172.657 110.539 173.595 108.363 174.491 105.888C177.521 107.637 181.041 109.003 185.051 109.984C189.062 110.965 192.795 111.456 196.251 111.456C199.793 111.456 202.289 111.157 203.739 110.56C205.19 109.92 205.915 109.237 205.915 108.512C205.915 105.909 201.947 104.608 194.011 104.608C185.307 104.608 178.993 103.712 175.067 101.92C171.142 100.085 169.179 97.1413 169.179 93.088C169.179 87.328 171.569 83.0827 176.347 80.352C181.126 77.6213 187.334 76.256 194.971 76.256C199.409 76.256 203.953 76.832 208.603 77.984C213.297 79.0933 217.521 80.6293 221.275 82.592C220.038 85.408 218.737 88.8427 217.371 92.896C217.115 93.7493 216.902 94.3893 216.731 94.816C214.555 93.0667 211.27 91.616 206.875 90.464C202.481 89.2693 198.598 88.672 195.227 88.672C191.174 88.672 188.443 88.9493 187.035 89.504C185.627 90.016 184.923 90.784 184.923 91.808C184.923 92.832 185.883 93.664 187.803 94.304C189.766 94.9013 192.582 95.2 196.251 95.2C205.297 95.2 211.867 96.2453 215.963 98.336C220.059 100.384 222.107 103.541 222.107 107.808C222.107 113.781 219.931 118.091 215.579 120.736C211.227 123.339 204.635 124.64 195.803 124.64C191.067 124.64 186.246 124.128 181.339 123.104C176.433 122.037 172.017 120.501 168.091 118.496ZM264.4 90.272C259.323 90.016 255.568 89.8667 253.136 89.824V111.712C255.611 111.669 259.366 111.52 264.4 111.264V124H227.216V111.264C232.123 111.52 235.856 111.669 238.416 111.712V89.824C235.856 89.8667 232.123 90.016 227.216 90.272V77.536H264.4V90.272ZM284.633 112.288C300.846 112.203 312.601 111.968 319.897 111.584C319.598 113.333 319.406 115.147 319.321 117.024C319.278 118.859 319.257 121.184 319.257 124H269.529C269.87 115.723 270.041 107.979 270.041 100.768C270.041 93.5573 269.87 85.8133 269.529 77.536H319.257V89.12H284.633V95.264C286.681 95.3067 289.71 95.328 293.721 95.328C300.505 95.328 307.523 95.2 314.777 94.944V105.952C307.523 105.696 300.505 105.568 293.721 105.568C289.71 105.568 286.681 105.589 284.633 105.632V112.288ZM378.225 124C377.415 121.568 376.327 118.517 374.961 114.848H354.545L351.345 124H335.281L353.201 77.536H376.753L394.801 124H378.225ZM371.313 104.864C369.692 100.384 368.028 95.904 366.321 91.424L364.785 87.264C363.292 91.1467 361.095 97.0133 358.193 104.864H371.313ZM439.189 124.64C429.546 124.64 422.442 122.592 417.877 118.496C413.311 114.4 411.029 108.555 411.029 100.96C411.029 93.3227 413.311 87.2853 417.877 82.848C422.442 78.4107 429.546 76.192 439.189 76.192C452.671 76.192 461.695 80.8213 466.261 90.08C462.421 91.4027 457.919 93.3867 452.757 96.032C451.519 93.6427 449.557 91.872 446.869 90.72C444.223 89.568 441.514 88.992 438.741 88.992C434.645 88.992 431.594 90.08 429.589 92.256C427.583 94.3893 426.581 97.0347 426.581 100.192C426.581 103.605 427.647 106.4 429.781 108.576C431.957 110.709 435.263 111.776 439.701 111.776C443.242 111.776 446.058 111.2 448.149 110.048C450.239 108.853 451.775 106.976 452.757 104.416C456.255 106.293 460.735 108.405 466.197 110.752C464.063 115.915 460.501 119.52 455.509 121.568C450.517 123.616 445.077 124.64 439.189 124.64ZM525.036 77.536C524.737 84.7467 524.588 92.4907 524.588 100.768C524.588 109.045 524.737 116.789 525.036 124H509.996V106.592H486.444V124H471.404C471.745 115.723 471.916 107.979 471.916 100.768C471.916 93.5573 471.745 85.8133 471.404 77.536H486.444V94.944H509.996V77.536H525.036ZM570.538 124C569.727 121.568 568.639 118.517 567.274 114.848H546.858L543.658 124H527.594L545.514 77.536H569.066L587.114 124H570.538ZM563.626 104.864C562.004 100.384 560.34 95.904 558.634 91.424L557.098 87.264C555.604 91.1467 553.407 97.0133 550.506 104.864H563.626ZM642.975 77.6C642.676 84.8107 642.527 92.5333 642.527 100.768C642.527 109.045 642.676 116.789 642.975 124H620.063L604.575 89.056L605.727 124H589.279C589.62 115.723 589.791 107.979 589.791 100.768C589.791 93.6 589.62 85.8773 589.279 77.6H612.831L628.383 113.504L627.295 77.6H642.975ZM676.251 124.64C666.609 124.64 659.505 122.592 654.939 118.496C650.374 114.4 648.091 108.555 648.091 100.96C648.091 93.3227 650.374 87.2853 654.939 82.848C659.505 78.4107 666.609 76.192 676.251 76.192C689.734 76.192 698.758 80.8213 703.323 90.08C699.483 91.4027 694.982 93.3867 689.819 96.032C688.582 93.6427 686.619 91.872 683.931 90.72C681.286 89.568 678.577 88.992 675.803 88.992C671.707 88.992 668.657 90.08 666.651 92.256C664.646 94.3893 663.643 97.0347 663.643 100.192C663.643 103.605 664.71 106.4 666.843 108.576C669.019 110.709 672.326 111.776 676.763 111.776C680.305 111.776 683.121 111.2 685.211 110.048C687.302 108.853 688.838 106.976 689.819 104.416C693.318 106.293 697.798 108.405 703.259 110.752C701.126 115.915 697.563 119.52 692.571 121.568C687.579 123.616 682.139 124.64 676.251 124.64ZM723.57 112.288C739.784 112.203 751.538 111.968 758.834 111.584C758.536 113.333 758.344 115.147 758.258 117.024C758.216 118.859 758.194 121.184 758.194 124H708.466C708.808 115.723 708.978 107.979 708.978 100.768C708.978 93.5573 708.808 85.8133 708.466 77.536H758.194V89.12H723.57V95.264C725.618 95.3067 728.648 95.328 732.658 95.328C739.442 95.328 746.461 95.2 753.714 94.944V105.952C746.461 105.696 739.442 105.568 732.658 105.568C728.648 105.568 725.618 105.589 723.57 105.632V112.288ZM220.974 164.976C214.275 164.763 207.768 164.635 201.454 164.592V198H185.454V164.592C179.096 164.635 172.611 164.763 165.998 164.976V151.536H220.974V164.976ZM250.79 198.64C241.019 198.64 233.83 196.528 229.222 192.304C224.614 188.037 222.31 182.064 222.31 174.384C222.31 166.789 224.593 160.859 229.158 156.592C233.766 152.325 240.977 150.192 250.79 150.192C260.646 150.192 267.857 152.325 272.422 156.592C277.03 160.859 279.334 166.789 279.334 174.384C279.334 182.107 277.051 188.08 272.486 192.304C267.921 196.528 260.689 198.64 250.79 198.64ZM250.79 185.584C255.526 185.584 258.939 184.688 261.03 182.896C263.121 181.061 264.166 178.224 264.166 174.384C264.166 170.629 263.121 167.835 261.03 166C258.939 164.165 255.526 163.248 250.79 163.248C246.097 163.248 242.705 164.165 240.614 166C238.523 167.835 237.478 170.629 237.478 174.384C237.478 178.181 238.523 180.997 240.614 182.832C242.705 184.667 246.097 185.584 250.79 185.584ZM334.752 174.896C344.48 174.896 349.344 177.989 349.344 184.176C349.344 187.077 348.682 189.552 347.36 191.6C346.037 193.605 343.669 195.184 340.256 196.336C336.842 197.445 332.106 198 326.048 198H297.248C297.589 189.723 297.76 181.979 297.76 174.768C297.76 167.557 297.589 159.813 297.248 151.536H312.288V151.6H325.92C331.21 151.6 335.37 152.048 338.4 152.944C341.472 153.797 343.626 155.056 344.864 156.72C346.144 158.384 346.784 160.496 346.784 163.056C346.784 165.659 345.866 167.984 344.032 170.032C342.24 172.037 339.146 173.659 334.752 174.896ZM312.288 163.248V169.2H324.576C327.221 169.2 329.056 168.965 330.08 168.496C331.146 168.027 331.68 167.173 331.68 165.936C331.68 164.955 331.125 164.272 330.016 163.888C328.949 163.461 327.136 163.248 324.576 163.248H312.288ZM324.576 186.288C326.794 186.288 328.48 186.203 329.632 186.032C330.826 185.819 331.68 185.477 332.192 185.008C332.704 184.496 332.96 183.813 332.96 182.96C332.96 181.851 332.341 181.061 331.104 180.592C329.909 180.08 327.733 179.824 324.576 179.824H312.288V186.288H324.576ZM369.539 186.288C385.752 186.203 397.507 185.968 404.803 185.584C404.504 187.333 404.312 189.147 404.227 191.024C404.184 192.859 404.163 195.184 404.163 198H354.435C354.776 189.723 354.947 181.979 354.947 174.768C354.947 167.557 354.776 159.813 354.435 151.536H404.163V163.12H369.539V169.264C371.587 169.307 374.616 169.328 378.627 169.328C385.411 169.328 392.43 169.2 399.683 168.944V179.952C392.43 179.696 385.411 179.568 378.627 179.568C374.616 179.568 371.587 179.589 369.539 179.632V186.288ZM422.748 192.496C424.198 190.32 425.393 188.293 426.332 186.416C427.313 184.539 428.252 182.363 429.148 179.888C432.177 181.637 435.697 183.003 439.708 183.984C443.718 184.965 447.452 185.456 450.908 185.456C454.449 185.456 456.945 185.157 458.396 184.56C459.846 183.92 460.572 183.237 460.572 182.512C460.572 179.909 456.604 178.608 448.668 178.608C439.964 178.608 433.649 177.712 429.724 175.92C425.798 174.085 423.836 171.141 423.836 167.088C423.836 161.328 426.225 157.083 431.004 154.352C435.782 151.621 441.99 150.256 449.628 150.256C454.065 150.256 458.609 150.832 463.26 151.984C467.953 153.093 472.177 154.629 475.932 156.592C474.694 159.408 473.393 162.843 472.028 166.896C471.772 167.749 471.558 168.389 471.388 168.816C469.212 167.067 465.926 165.616 461.532 164.464C457.137 163.269 453.254 162.672 449.884 162.672C445.83 162.672 443.1 162.949 441.692 163.504C440.284 164.016 439.58 164.784 439.58 165.808C439.58 166.832 440.54 167.664 442.46 168.304C444.422 168.901 447.238 169.2 450.908 169.2C459.953 169.2 466.524 170.245 470.62 172.336C474.716 174.384 476.764 177.541 476.764 181.808C476.764 187.781 474.588 192.091 470.236 194.736C465.884 197.339 459.292 198.64 450.46 198.64C445.724 198.64 440.902 198.128 435.996 197.104C431.089 196.037 426.673 194.501 422.748 192.496ZM522.257 198C521.446 195.568 520.358 192.517 518.993 188.848H498.577L495.377 198H479.312L497.233 151.536H520.785L538.833 198H522.257ZM515.345 178.864C513.723 174.384 512.059 169.904 510.353 165.424L508.817 161.264C507.323 165.147 505.126 171.013 502.225 178.864H515.345ZM561.478 150.832C569.499 150.832 575.835 151.813 580.486 153.776C585.136 155.696 588.379 158.384 590.214 161.84C592.091 165.253 593.03 169.456 593.03 174.448C593.03 179.184 591.963 183.323 589.83 186.864C587.696 190.405 584.496 193.157 580.23 195.12C575.963 197.04 570.715 198 564.486 198C560.688 198 556.827 198 552.902 198C548.976 198 545.008 197.979 540.998 197.936C541.339 189.531 541.51 181.701 541.51 174.448C541.51 167.109 541.339 159.451 540.998 151.472C546.075 151.045 552.902 150.832 561.478 150.832ZM566.278 185.264C570.246 185.264 572.891 184.304 574.214 182.384C575.536 180.464 576.198 177.819 576.198 174.448C576.198 171.205 575.494 168.581 574.086 166.576C572.72 164.571 570.118 163.568 566.278 163.568C562.139 163.568 559.046 163.696 556.998 163.952V185.264H566.278Z" fill="white"/>
</svg>
