<svg width="215" height="222" viewBox="0 0 215 222" fill="none" xmlns="http://www.w3.org/2000/svg">
<path d="M81.6267 162.667C125.587 162.667 149.627 126.249 149.627 94.6705C149.627 93.6359 149.6 92.6052 149.56 91.5812C154.227 88.2079 158.28 83.9985 161.48 79.2078C157.2 81.1091 152.587 82.3919 147.76 82.9692C152.693 80.0119 156.48 75.3292 158.267 69.7492C153.64 72.4879 148.533 74.4785 143.093 75.5505C138.72 70.9052 132.52 67.9998 125.64 67.9998C112.44 67.9998 101.747 78.7025 101.747 91.8958C101.747 93.7718 101.947 95.5958 102.36 97.3452C82.4934 96.3465 64.8933 86.8372 53.1066 72.3772C51.0533 75.9065 49.8667 80.0119 49.8667 84.3879C49.8667 92.6799 54.08 99.9986 60.5066 104.281C56.5866 104.16 52.8933 103.082 49.6799 101.29C49.6666 101.39 49.6667 101.49 49.6667 101.596C49.6667 113.17 57.9066 122.833 68.84 125.025C66.84 125.571 64.7199 125.865 62.5466 125.865C60.9999 125.865 59.5066 125.713 58.0533 125.434C61.0933 134.929 69.92 141.839 80.3733 142.033C72.2 148.443 61.8934 152.262 50.6934 152.262C48.7734 152.262 46.8667 152.153 45 151.932C55.5733 158.709 68.1334 162.667 81.6267 162.667Z" fill="white"/>
<path d="M11.582 93.4431C10.5843 83.4661 9.81178 73.2161 13.3498 63.4865C15.6226 57.2365 20.2322 51.4836 24.482 46.5255C27.2943 43.2444 31.3246 37.5892 36.0442 36.7311C38.0352 36.3691 40.3422 36.6678 42.1119 37.5911C46.7236 39.9971 45.6943 38.573 47.033 33.9122C49.8991 23.9341 60.1979 10.5616 71.7818 10.8834C79.0464 11.0852 86.7074 17.4522 91.0362 22.78C93.2443 25.4976 99.7024 15.9034 101.213 14.5145C108.68 7.64788 120.411 6.1325 130.166 5.77118C142.072 5.33024 148.258 8.36728 151.57 19.9611C151.862 20.982 156.64 17.7303 158.689 17.4289C164.713 16.5431 171.276 19.6603 175.459 23.7833C180.292 28.5466 188.193 37.2764 178.899 41.3655C174.695 43.2154 175.498 42.9376 179.473 45.2833C184.233 48.0926 188.433 52.1343 191.751 56.5588C195.657 61.7664 204.674 74.8307 193.71 77.772C188.749 79.103 201.689 83.4549 203.218 84.4609C208.08 87.6598 210.596 92.7926 208.33 98.412C206.785 102.245 204.14 104.47 199.921 104.623C196.868 104.734 191.24 104.108 193.185 108.971C194.777 112.952 198.242 115.897 198.87 120.294C199.716 126.217 197.916 132.504 196.004 138.067C193.63 144.973 188.224 143.025 182.721 144.183C178.429 145.087 186.642 164.542 187.308 167.116C188.527 171.828 188.841 176.381 185.11 180.112C179.057 186.165 168.264 185.881 160.887 182.931C159.24 182.272 164.194 184.63 165.139 186.132C167.418 189.751 161.81 192.407 159.31 193.107C149.995 195.715 138.419 193.179 129.019 191.961C126.034 191.574 124.69 190.315 125.293 192.725C128.348 204.947 112.001 221.073 99.684 215.563C95.7097 213.785 99.6615 205.576 95.7184 208.73C88.4097 214.577 67.451 217.628 61.9396 207.393C60.8016 205.279 61.9379 202.926 63.9941 201.898C66.8734 200.459 61.6721 202.71 59.6463 202.472C48.8532 201.202 37.2614 195.451 28.5909 188.998C26.6788 187.575 22.1598 185.698 25.1509 183.743C30.5967 180.182 34.6808 187.087 28.7342 187.087C21.5888 187.087 13.8863 175.319 11.3909 169.601C10.626 167.848 3.81707 153.252 7.32983 153.691C8.26603 153.808 11.8704 155.579 10.9609 153.356C8.75995 147.976 6.42206 143.265 6.42206 137.303C6.42206 134.1 6.66286 127.981 10.722 127.079C11.2445 126.962 16.4971 126.554 16.3598 127.652C16.1657 129.205 9.60045 125.587 9.19316 125.263C5.82047 122.58 5.27812 118.539 6.03984 114.513C7.5435 106.565 9.68302 104.942 17.1242 106.295C19.3713 106.704 16.0179 106.195 15.4998 105.865C13.8657 104.825 12.614 102.952 11.582 101.374C10.5854 99.8499 9.81305 95.1876 11.582 94.3031" stroke="white" stroke-width="10" stroke-linecap="round"/>
</svg>
