<svg width="214" height="221" viewBox="0 0 214 221" fill="none" xmlns="http://www.w3.org/2000/svg">
<path d="M144.811 72.2802C144.467 71.2668 144.056 71.0002 143.415 70.7468C142.012 70.2268 139.636 71.0135 139.636 71.0135C139.636 71.0135 55.523 101.254 50.7177 104.6C49.683 105.32 49.3364 105.747 49.1644 106.24C48.3337 108.614 50.9217 109.667 50.9217 109.667L72.6017 116.734C72.6017 116.734 73.4097 116.854 73.6977 116.667C78.6297 113.547 123.319 85.3335 125.896 84.3868C126.303 84.2668 126.604 84.4002 126.524 84.6802C125.492 88.3069 86.6777 122.8 86.6777 122.8C86.6777 122.8 86.5297 122.987 86.4364 123.2L86.3857 123.174L84.363 144.68C84.363 144.68 83.515 151.267 90.103 144.68C94.751 140.027 99.2484 136.134 101.499 134.254C108.954 139.4 116.976 145.094 120.439 148.067C122.178 149.56 123.632 149.8 124.83 149.76C128.116 149.64 129.034 146.027 129.034 146.027C129.034 146.027 144.362 84.3335 144.874 76.0669C144.924 75.2535 144.994 74.7468 144.999 74.1868C145.008 73.4135 144.936 72.6402 144.811 72.2802Z" fill="white"/>
<path d="M10.8452 92.7126C9.84752 82.7356 9.07496 72.4857 12.613 62.7561C14.8857 56.506 19.4954 50.7531 23.7452 45.795C26.5575 42.514 30.5878 36.8587 35.3074 36.0006C37.2983 35.6386 39.6054 35.9373 41.3751 36.8606C45.9867 39.2667 44.9575 37.8425 46.2962 33.1817C49.1623 23.2037 59.461 9.83114 71.045 10.1529C78.3096 10.3547 85.9706 16.7218 90.2994 22.0495C92.5074 24.7672 98.9656 15.1729 100.476 13.784C107.943 6.91741 119.674 5.40203 129.429 5.04072C141.335 4.59977 147.521 7.63681 150.834 19.2307C151.125 20.2515 155.903 16.9998 157.952 16.6985C163.976 15.8127 170.54 18.9298 174.722 23.0529C179.555 27.8162 187.456 36.5459 178.162 40.635C173.958 42.4849 174.761 42.2072 178.736 44.5528C183.496 47.3621 187.696 51.4038 191.015 55.8283C194.92 61.0359 203.937 74.1002 192.973 77.0416C188.013 78.3726 200.952 82.7244 202.481 83.7304C207.343 86.9293 209.859 92.0621 207.593 97.6815C206.048 101.514 203.403 103.739 199.185 103.893C196.131 104.004 190.503 103.378 192.448 108.24C194.041 112.222 197.505 115.167 198.133 119.564C198.98 125.486 197.179 131.773 195.267 137.337C192.893 144.243 187.487 142.294 181.985 143.452C177.692 144.356 185.905 163.811 186.571 166.386C187.79 171.097 188.104 175.651 184.374 179.381C178.321 185.434 167.527 185.151 160.15 182.2C158.503 181.541 163.457 183.9 164.402 185.401C166.682 189.021 161.073 191.677 158.574 192.377C149.258 194.985 137.682 192.449 128.283 191.23C125.297 190.843 123.953 189.584 124.556 191.995C127.611 204.217 111.264 220.342 98.9471 214.832C94.9729 213.054 98.9246 204.846 94.9816 208C87.6729 213.847 66.7142 216.898 61.2028 206.662C60.0647 204.549 61.2011 202.196 63.2573 201.168C66.1366 199.728 60.9352 201.979 58.9095 201.741C48.1164 200.471 36.5245 194.72 27.8541 188.268C25.942 186.845 21.423 184.968 24.4141 183.012C29.8599 179.452 33.944 186.357 27.9974 186.357C20.8519 186.357 13.1495 174.589 10.6541 168.87C9.88916 167.117 3.08025 152.521 6.59301 152.96C7.52921 153.077 11.1336 154.849 10.2241 152.626C8.02313 147.246 5.68524 142.534 5.68524 136.572C5.68524 133.37 5.92605 127.25 9.98522 126.348C10.5077 126.232 15.7602 125.823 15.623 126.921C15.4289 128.474 8.86364 124.857 8.45634 124.533C5.08365 121.85 4.5413 117.809 5.30302 113.783C6.80668 105.835 8.9462 104.212 16.3874 105.565C18.6345 105.973 15.2811 105.464 14.763 105.135C13.1289 104.095 11.8772 102.222 10.8452 100.644C9.84858 99.1194 9.07623 94.4571 10.8452 93.5726" stroke="white" stroke-width="10" stroke-linecap="round"/>
</svg>
